<?xml version="1.0" encoding="UTF-8"?>
<svg id="Calque_2" data-name="Calque 2" xmlns="http://www.w3.org/2000/svg" viewBox="0 0 757.48 747.59">
  <defs>
    <style>
      .cls-1 {
        opacity: .51;
      }

      .cls-2 {
        fill: #ff007d;
        stroke-width: 0px;
      }
    </style>
  </defs>
  <g id="Calque_1-2" data-name="Calque 1">
    <g class="cls-1">
      <path class="cls-2" d="m242.28,65.36l-71.6,403.95L0,521.69v152.24l244.88-57.24s45.26-265.57,45.26-316.32c27.07-1.69,189.44-30.96,189.44-30.96l-24.31,208.77-100.56,56.85,29.75,196.47,267.73-130.15s67.68-509.14,55.84-585.26l-465.76,49.26Z"/>
    </g>
    <path class="cls-2" d="m756.09,0c11.84,76.12-55.84,585.26-55.84,585.26l-247.59,162.33-29.75-196.47,103.75-54.2,37.37-320.96s-185.71-5.57-212.78-3.88c0,50.75-58.32,428.51-58.32,428.51L0,568.72v-152.24l152.79,35.27L224.39,47.79"/>
  </g>
</svg>