<?xml version="1.0" encoding="UTF-8"?>
<svg id="Calque_2" data-name="Calque 2" xmlns="http://www.w3.org/2000/svg" viewBox="0 0 762.89 747.59">
  <defs>
    <style>
      .cls-1 {
        opacity: .51;
      }

      .cls-2 {
        fill: #6de700;
        stroke-width: 0px;
      }
    </style>
  </defs>
  <g id="Calque_1-2" data-name="Calque 1">
    <g class="cls-1">
      <path class="cls-2" d="m295.74,81.45l-71.6,403.95-170.68,52.38v152.24l244.88-57.24s45.26-265.57,45.26-316.32c27.07-1.69,189.44-30.96,189.44-30.96l-24.31,208.77-100.56,56.85,29.75,196.47,267.73-130.15s67.68-509.14,55.84-585.26l-465.76,49.26Z"/>
    </g>
    <path class="cls-2" d="m256.9,47.49C304.63,39.6,702.24,1.66,723.79,0c11.84,76.12-15.22,595.43-15.22,595.43l-288.2,152.16-6.11-107.55,169.67-147,15.75-123.13s-275.28-1.69-302.34,0c0,50.75-36.71,230.67-36.71,230.67L0,690.34v-152.24l182.39-83.78L253.99,50.37c.26-1.48,1.43-2.64,2.91-2.89Z"/>
  </g>
</svg>