<?xml version="1.0" encoding="UTF-8"?>
<svg id="Calque_2" data-name="Calque 2" xmlns="http://www.w3.org/2000/svg" viewBox="0 0 544.73 383.91">
  <defs>
    <style>
      .cls-1 {
        fill: #ca00d3;
      }
    </style>
  </defs>
  <g id="Calque_1-2" data-name="Calque 1">
    <g>
      <path class="cls-1" d="M365.23,193.95c-2.1,6.08-10.97,25.39-13.19,31.38l129.18,.49c14.75-14.75,16.66-16.58,19.24-19.16,3.74-3.74,12.91-10.8,29.75-31.07l-274.74-14.5"/>
      <path class="cls-1" d="M296.57,52.16c18.56-27.88,43.45-42.66,70.7-48.89,58.61-13.42,119.25,15.42,146.07,69.23,2.39,4.8,1.33,2.42,2.95,6.02l-233.12-.3"/>
      <path class="cls-1" d="M538.76,78.06l-255.34-.34c-4.77,9.02-9.57,18.03-14.43,27.02l275.75-1.06c-.24-10.5-2.06-16.97-5.97-25.62Z"/>
      <path class="cls-1" d="M511.73,103.63l-242.25,.2c-12.46,23.04-16.12,29.37-27.17,53.38,6.84,1.82,8.82,2.74,15.68,4.59l231.55,14.13c12.03-18.94,22.86-43.94,22.2-72.29Z"/>
      <path class="cls-1" d="M321.56,308l9.64-.03c28.14-30.15,58.98-61.38,80.68-83.07l-59.91-.06"/>
      <path class="cls-1" d="M321.49,308.19c-.37,1.05-.9,2.05-1.24,3.14-7.28,23.66-14.75,45.1-21.96,68.4,9.03-9.69,36.39-39.05,66.94-71.77l-43.73,.23Z"/>
    </g>
    <g>
      <path class="cls-1" d="M198.07,176.94l-133.62-.46c10.16,12.53,15.63,17.72,25.36,28.43,6.07,6.69,7.46,7.59,20.32,20.59l191.93,.72c2.23-5.99,5.5-14.28,8.1-20.26"/>
      <path class="cls-1" d="M40.48,77.72c-1.02,2.7-2,5.48-2.94,8.33-2.71,7.32-3.26,10.99-3.67,19.66l185.41-.71c4.87-8.99,9.67-18,14.43-27.02l-193.24-.26Z"/>
      <path class="cls-1" d="M219.77,104.64L.12,104.82c-1.31,28.06,7.96,51.8,21.87,72.56l179.05,.23c-6.98-1.5-12.89-2.7-20.5-4.47,13.88-22.56,26.76-45.46,39.22-68.49Z"/>
      <path class="cls-1" d="M302.28,225.64l-243.26-.25c22.85,23.09,53.25,53.99,81.2,83.82l131.65-.41c2.74-7.89,5.24-14.91,7.87-22.8,7.07-21.21,14.94-40.46,22.54-60.36Z"/>
      <path class="cls-1" d="M270.56,312.13c.47-1.05,.87-2.09,1.24-3.14l-95.97,.5c37.62,40.15,69.62,74.42,69.62,74.42"/>
      <g>
        <path class="cls-1" d="M247.43,53.14C224.18,3.08,80.98-43.35,25.97,78.95"/>
        <path class="cls-1" d="M25.97,78.95s204.81-.27,207.24,0c1.8-3.44,14.22-25.81,14.22-25.81"/>
      </g>
    </g>
  </g>
</svg>